# xmcd CD database file
#
# Track frame offsets:
#	150
#	15338
#	32018
#	51593
#	67993
#	87125
#	105365
#	131218
#	146530
#	166105
#	185225
#	200315
#	219128
#
# Disc length: 3184 seconds
#
# Revision: 2
# Processed by: cddbd v1.5.2PL0 Copyright (c) Steve Scherf et al.
# Submitted via: CDex 1.79
#
DISCID=ac0c6e0d
DTITLE=Randy Crawford - Permanent
DYEAR=2000
DGENRE=Blues
TTITLE0=Wild Is The Wind
TTITLE1=Merry Go Round
TTITLE2=Free The Child
TTITLE3=Permanent
TTITLE4=Sweetest Thing
TTITLE5=Fire And Rain
TTITLE6=When I Get Over You
TTITLE7=Alfie
TTITLE8=When The Evening Comes
TTITLE9=All I Do
TTITLE10=When Will I Be Free Of Love's Taboo
TTITLE11=Tell It To Your Heart
TTITLE12=I Get A Little Burned
EXTD=YEAR: 2000
EXTT0=
EXTT1=
EXTT2=
EXTT3=
EXTT4=
EXTT5=
EXTT6=
EXTT7=
EXTT8=
EXTT9=
EXTT10=
EXTT11=
EXTT12=
PLAYORDER=
